<?xml version="1.0" encoding="utf-8"?>
<!-- Generator: Adobe Illustrator 26.0.2, SVG Export Plug-In . SVG Version: 6.00 Build 0)  -->
<svg version="1.1" id="Layer_1" xmlns="http://www.w3.org/2000/svg" xmlns:xlink="http://www.w3.org/1999/xlink" x="0px" y="0px"
	 viewBox="0 0 200 200" style="enable-background:new 0 0 200 200;" xml:space="preserve">
<style type="text/css">
	.st0{fill:#FFFFFF;}
</style>
<g>
	<g>
		<g id="_x30_1_Logout_00000125571958630083617540000004229494210449121967_">
		</g>
		<g id="_x30_2_User_00000103954571018120561570000000524472565348891324_">
		</g>
		<g id="_x30_3_Login_00000033364455923465743840000013942427524701328539_">
		</g>
		<g id="_x30_4_Close_00000178206497195775024110000008943630248708364174_">
		</g>
		<g id="_x30_5_Accept_00000046311311067939732920000009962766582449198766_">
		</g>
		<g id="_x30_6_Heart_00000029008028364692348210000013497095646067816842_">
		</g>
		<g id="_x30_7_Shopping_Bag_00000054953638469973809360000015092712293793663401_">
		</g>
		<g id="_x30_8_Cursor_00000065042495059105307410000004707829063510807996_">
		</g>
		<g id="_x30_9_Settings_00000031201262511747756720000011384879338868665515_">
		</g>
		<g id="_x31_0_Location_00000083071924778486982180000000143435064321622929_">
		</g>
		<g id="_x31_1_Star_00000011727399184456003940000001753796176758556290_">
		</g>
		<g id="_x31_2_Cloud_00000132090298312564965900000009387904248516976055_">
		</g>
		<g id="_x31_3_Plus_00000089554952564162654320000003012182359577240249_">
		</g>
		<g id="_x31_4_Search_00000097458402201187805050000010759796903367876009_">
		</g>
		<g id="_x31_5_Chat_00000083076821293547890470000002729736931721111434_">
		</g>
		<g id="_x31_6_Success_00000044884925001385835200000003795056856980956546_">
		</g>
		<g id="_x31_7_Download_00000027582569949752006330000001789031449906094247_">
		</g>
		<g id="_x31_8_Pencil_00000021086564508953832860000013723440887633019582_">
		</g>
		<g id="_x31_9_Chevron_00000157298937006221410310000004909700224315086233_">
		</g>
		<g id="_x32_0_User_00000117660326741271686570000001333613542988429448_">
		</g>
		<g id="_x32_1_Minus_00000178187117731645098000000006766186141103446402_">
		</g>
		<g id="_x32_2_Loading_00000127041680609647082730000011322588798698990240_">
		</g>
		<g id="_x32_3_Upload_00000176734081982534992150000006220739602534447035_">
		</g>
		<g id="_x32_4_Password_00000036221217936219865470000009222973410672469415_">
		</g>
		<g id="_x32_5_Info_00000060018745474334372000000001372629410002161340_">
		</g>
		<g id="_x32_6_Settings_00000182498181379182916310000016465157671540760231_">
		</g>
		<g id="_x32_7_Chevron_00000070831718308157155010000007325994405652294028_">
		</g>
		<g id="_x32_8_Menu_00000036964659497735602020000009901926257046750122_">
		</g>
		<g id="_x32_9_Share_00000024689223503824651620000003011854761198269609_">
		</g>
		<g id="_x33_0_Chevron_00000031918744499186545880000005596257493644939953_">
		</g>
		<g id="_x33_1_Smartphone_00000037670244307471604620000000932629982421566902_">
		</g>
		<g id="_x33_2_Link_00000181072308787986048600000012784713500475751307_">
		</g>
		<g id="_x33_3_Folder_00000042708327256767236070000010923325671693380260_">
		</g>
		<g id="_x33_4_Checked_00000103234118182924038970000013680913272992419763_">
		</g>
		<g id="_x33_5_Bookmark_00000134972492632221477880000015281132013115877264_">
		</g>
		<g id="_x33_6_Filter_00000029024469386671303210000010211911747360545173_">
		</g>
		<g id="_x33_7_Cloud_Computing_00000158748071669749669070000008283841758839435936_">
		</g>
		<g id="_x33_8_Question_00000178917403432191562410000004701415393757956505_">
		</g>
		<g id="_x33_9_Eye_00000167366169809311097090000010073271900837927846_">
		</g>
		<g id="_x34_0_Zoom_In_00000152981728831758493190000002569617972888838809_">
		</g>
		<g id="_x34_1_Zoom_Out_00000078729239289444862620000013006744056312463253_">
		</g>
		<g id="_x34_2_Trash_00000028309723505734559310000004473006996949093249_">
			<g>
				<path fill="#fff" d="M136,84.3c-3.1,0-5.6,2.5-5.6,5.6v48c0,4.2-3.4,7.6-7.6,7.6H80.6c-4.2,0-7.6-3.4-7.6-7.6v-48
					c0-3.1-2.5-5.6-5.6-5.6s-5.6,2.5-5.6,5.6v48c0,10.3,8.4,18.8,18.8,18.8h42.2c10.3,0,18.8-8.4,18.8-18.8v-48
					C141.6,86.8,139.1,84.3,136,84.3L136,84.3z"/>
				<path fill="#fff" d="M136,64.3h-10.9c-1.1-12-11.2-21.4-23.4-21.4s-22.4,9.4-23.4,21.4H67.4c-3.1,0-5.6,2.5-5.6,5.6
					c0,3.1,2.5,5.6,5.6,5.6H136c3.1,0,5.6-2.5,5.6-5.6C141.5,66.8,139.1,64.3,136,64.3L136,64.3z M101.7,54
					c6.1,0,11.2,4.5,12.2,10.3H89.5C90.5,58.5,95.6,54,101.7,54z"/>
				<path fill="#fff" d="M96.1,127.4V102c0-3.1-2.5-5.6-5.6-5.6c-3.1,0-5.6,2.5-5.6,5.6v25.4c0,3.1,2.5,5.6,5.6,5.6
					C93.6,132.9,96.1,130.5,96.1,127.4L96.1,127.4z"/>
				<path fill="#fff" d="M118.4,127.4V102c0-3.1-2.5-5.6-5.6-5.6c-3.1,0-5.6,2.5-5.6,5.6v25.4c0,3.1,2.5,5.6,5.6,5.6
					C115.9,132.9,118.4,130.5,118.4,127.4L118.4,127.4z"/>
			</g>
		</g>
		<g id="_x34_3_Trash_Bin_00000094591343913338898590000006206959256456312974_">
		</g>
		<g id="_x34_4_Send_00000060000243938512551660000011591618357478152833_">
		</g>
		<g id="_x34_5_Notification_00000111909930832250797920000004776383757352026286_">
		</g>
		<g id="_x34_6_Phone_Call_00000092432069135477074740000002535012901392557498_">
		</g>
		<g id="_x34_7_Email_00000142138390669020260880000005627305526287382174_">
		</g>
		<g id="_x34_8_Shopping_Cart_00000158708132119319563760000001166088232444285841_">
		</g>
		<g id="_x34_9_Camera_00000140707506414149532750000012617149997100587166_">
		</g>
		<g id="_x35_0_Menu_00000008844781608548502070000012507976545100200085_">
		</g>
	</g>
</g>
</svg>
