<?xml version="1.0" encoding="utf-8"?>
<!-- Generator: Adobe Illustrator 25.4.1, SVG Export Plug-In . SVG Version: 6.00 Build 0)  -->
<svg version="1.1" xmlns="http://www.w3.org/2000/svg" xmlns:xlink="http://www.w3.org/1999/xlink" x="0px" y="0px"
	 viewBox="0 0 135.6 135.6" style="enable-background:new 0 0 135.6 135.6;" xml:space="preserve">
<style type="text/css">
	.st0{fill:none;stroke:#000000;stroke-miterlimit:10;}
	.st1{fill:none;stroke:#000000;stroke-width:10;stroke-miterlimit:10;}
	.st2{display:none;fill:none;stroke:#000000;stroke-miterlimit:10;}
	.st3{fill:none;}
	.st4{fill:#FFFFFF;}
</style>
<g id="likes">
	<rect x="-314.1" y="0.5" class="st0" width="134.6" height="134.6"/>
	<g>
		<g>
			<path d="M-199.3,32.2c-12.3-12.3-32.3-12.3-44.7,0l-2.9,2.9l-2.9-2.9c-12.3-12.3-32.3-12.3-44.7,0c-12.1,12.1-12.1,31.2-0.2,44.5
				c10.9,12.1,43.1,38.3,44.4,39.4c0.9,0.8,2,1.1,3.1,1.1c0,0,0.1,0,0.1,0c1.1,0.1,2.3-0.3,3.3-1.1c1.4-1.1,33.5-27.3,44.4-39.4
				C-187.2,63.4-187.2,44.3-199.3,32.2z M-206.5,70c-8.5,9.4-31.9,28.9-40.3,35.8c-8.4-6.9-31.8-26.4-40.3-35.8
				c-8.3-9.3-8.4-22.5-0.2-30.7c4.2-4.2,9.7-6.3,15.3-6.3s11.1,2.1,15.3,6.3l6.3,6.3c0.7,0.7,1.7,1.2,2.7,1.4
				c1.6,0.3,3.3-0.1,4.6-1.3l6.3-6.3c8.4-8.4,22.1-8.4,30.5,0C-198.1,47.5-198.2,60.8-206.5,70z"/>
		</g>
	</g>
</g>
<g id="views">
	<rect x="-156.8" y="0.5" class="st0" width="134.6" height="134.6"/>
	<g id="Layer_6">
		<g>
			<path class="st1" d="M-147.1,64.7c19.6-24.6,65.6-67.9,115.2,0.2c1,1.3,1.1,3.1,0.1,4.3c-9.4,11.3-56.8,68.4-115.2,0.1
				C-148.2,68-148.2,66.1-147.1,64.7z"/>
			<circle class="st1" cx="-88.2" cy="65.6" r="16.3"/>
		</g>
	</g>
</g>
<g id="copy">
	<rect x="0.5" y="0.5" class="st2" width="134.6" height="134.6"/>
	<g>
		<g>
			<path d="M83.7,95.6H23.6C16.7,95.6,11,90,11,83.1V23c0-6.9,5.6-12.6,12.6-12.6h60.1c6.9,0,12.6,5.6,12.6,12.6v60.1
				C96.3,90,90.6,95.6,83.7,95.6z M23.6,19.6c-1.9,0-3.4,1.5-3.4,3.4v60.1c0,1.9,1.5,3.4,3.4,3.4h60.1c1.9,0,3.4-1.5,3.4-3.4V23
				c0-1.9-1.5-3.4-3.4-3.4H23.6z"/>
		</g>
		<g>
			<g>
				<path class="st3" d="M49.8,89.6v19.8c0,2.2,1.8,3.9,3.9,3.9h57.5c2.2,0,3.9-1.8,3.9-3.9V51.8c0-2.2-1.8-3.9-3.9-3.9H94.9v41.6
					H49.8z"/>
			</g>
			<g>
				<path d="M111.2,37.2H94.9v10.7h16.3c2.2,0,3.9,1.8,3.9,3.9v57.5c0,2.2-1.8,3.9-3.9,3.9H53.7c-2.2,0-3.9-1.8-3.9-3.9V89.6H39.1
					v19.8c0,8,6.5,14.6,14.6,14.6h57.5c8,0,14.6-6.5,14.6-14.6V51.8C125.8,43.8,119.2,37.2,111.2,37.2z"/>
			</g>
		</g>
	</g>
</g>
<g id="comment">
	<path class="st1" d="M181.5,74.4v49c0,0.8,1,1.2,1.6,0.6l18.7-18.7c1.9-1.9,4.4-2.9,7-2.9h56.9c4.7,0,8.5-3.8,8.5-8.5V28
		c0-4.7-3.8-8.5-8.5-8.5H190c-4.7,0-8.5,3.8-8.5,8.5V74.4z"/>
	<rect x="160.4" y="0.5" class="st0" width="134.6" height="134.6"/>
</g>
<g id="filter">
	<rect x="-314.1" y="161.7" class="st0" width="134.6" height="134.6"/>
	<g>
		<g>
			<g>
				<path d="M-199.9,201.2h-91.8c-3.6,0-6.5-2.9-6.5-6.5v0c0-3.6,2.9-6.5,6.5-6.5h91.8c3.6,0,6.5,2.9,6.5,6.5v0
					C-193.4,198.3-196.3,201.2-199.9,201.2z"/>
			</g>
			<g>
				<path d="M-232.7,235.8h-59.1c-3.6,0-6.5-2.9-6.5-6.5v0c0-3.6,2.9-6.5,6.5-6.5h59.1c3.6,0,6.5,2.9,6.5,6.5v0
					C-226.1,232.8-229,235.8-232.7,235.8z"/>
			</g>
		</g>
		<g>
			<path d="M-262,270.3h-29.7c-3.6,0-6.5-2.9-6.5-6.5l0,0c0-3.6,2.9-6.5,6.5-6.5h29.7c3.6,0,6.5,2.9,6.5,6.5l0,0
				C-255.5,267.4-258.4,270.3-262,270.3z"/>
		</g>
	</g>
</g>
<g id="location">
	<rect x="-156.8" y="162" class="st0" width="134.6" height="134.6"/>
	<path class="st1" d="M-42.8,192.2l-47.8,82.4c-1.3,2.2-4.5,1.5-4.8-1l-3.2-27.1c-0.6-4.6-3.9-8.5-8.4-9.7l-27.6-7.3
		c-2.2-0.6-2.4-3.7-0.3-4.5l89.9-35.4C-43.4,189-41.9,190.7-42.8,192.2z"/>
</g>
<g id="date">
	<rect x="0.5" y="161.7" class="st0" width="134.6" height="134.6"/>
	<g>
		<g id="date_00000124871504792413206830000004614131980362513820_">
			<path d="M110.7,185.3H91.6l0-4.8c0-2.6-2.1-4.8-4.8-4.8c-2.6,0-4.8,2.1-4.8,4.8l0,4.8H53.5l0-4.8c0-2.6-2.1-4.8-4.8-4.8
				c-2.6,0-4.8,2.1-4.8,4.8l0,4.8H24.9c-2.6,0-4.8,2.1-4.8,4.8v85.8c0,2.6,2.1,4.8,4.8,4.8c0,0,0,0,0,0h85.8c2.6,0,4.8-2.1,4.8-4.8
				c0,0,0,0,0,0v-85.8C115.5,187.5,113.4,185.3,110.7,185.3z M44,194.9l0,4.8c0,2.6,2.1,4.8,4.8,4.8c2.6,0,4.8-2.1,4.8-4.8l0-4.8
				h28.6l0,4.8c0,2.6,2.1,4.8,4.8,4.8s4.8-2.1,4.8-4.8l0-4.8H106V214H29.7v-19.1H44z M29.7,271.2v-47.7H106v47.7H29.7z"/>
		</g>
	</g>
</g>
<g id="Doc">
	<rect x="160.4" y="162" class="st0" width="134.6" height="134.6"/>
	<g>
		<path d="M265.6,285.7H190c-7.5,0-13.5-6.1-13.5-13.5v-82.7c0-7.4,6-13.5,13.4-13.5l52.2-0.6c0.1,0,0.1,0,0.2,0c3.6,0,7,1.4,9.6,4
			l23.4,23.4c2.6,2.6,4,6,4,9.6v60C279.2,279.6,273.1,285.7,265.6,285.7z M242.2,185.3C242.2,185.3,242.2,185.3,242.2,185.3
			l-52.3,0.6c-1.9,0-3.5,1.6-3.5,3.5v82.7c0,2,1.6,3.5,3.5,3.5h75.6c2,0,3.5-1.6,3.5-3.5v-60c0-0.9-0.4-1.8-1-2.5l-23.4-23.4
			C244.1,185.7,243.2,185.3,242.2,185.3z"/>
	</g>
	<g>
		<g>
			<path d="M247.8,231.8h-40.1c-3.6,0-6.5-2.9-6.5-6.5v0c0-3.6,2.9-6.5,6.5-6.5h40.1c3.6,0,6.5,2.9,6.5,6.5v0
				C254.3,228.8,251.4,231.8,247.8,231.8z"/>
		</g>
	</g>
	<g>
		<g>
			<path d="M247.8,256.4h-40.1c-3.6,0-6.5-2.9-6.5-6.5l0,0c0-3.6,2.9-6.5,6.5-6.5h40.1c3.6,0,6.5,2.9,6.5,6.5l0,0
				C254.3,253.5,251.4,256.4,247.8,256.4z"/>
		</g>
	</g>
</g>
<g id="attributes">
	<g id="Groupe_149" transform="translate(-1428.311 -602.583)">
		<path id="Tracé_395" d="M1816.3,810.9l-9.8,42.2h-16.1c1.6-7.1,3.7-14,6.6-20.8c3.2-7.4,6.9-14.5,11.1-21.4H1816.3z"/>
		<path id="Tracé_396" d="M1839.2,810.9l-9.8,42.2h-16.1c1.6-7.1,3.7-14,6.6-20.8c3.2-7.4,6.9-14.5,11.1-21.4H1839.2z"/>
	</g>
	<g>
		<path d="M431.8,282.1h-90.5c-4.1,0-7.4-3.3-7.4-7.4v-90.5c0-4.1,3.3-7.4,7.4-7.4h90.5c4.1,0,7.4,3.3,7.4,7.4v90.5
			C439.2,278.7,435.9,282.1,431.8,282.1z M347.3,272.1h78.4c1.9,0,3.5-1.6,3.5-3.5v-78.4c0-1.9-1.6-3.5-3.5-3.5h-78.4
			c-1.9,0-3.5,1.6-3.5,3.5v78.4C343.8,270.5,345.4,272.1,347.3,272.1z"/>
	</g>
	<rect x="320.3" y="162" class="st0" width="134.6" height="134.6"/>
</g>
<g id="Examples">
	<rect x="480.2" y="162" class="st0" width="134.6" height="134.6"/>
	<g>
		<path d="M589.3,195h-34.5c-0.3,0-0.7-0.1-0.9-0.4l-10.8-10.8c-2-2-4.8-3.2-7.7-3.2h-29.7c-6,0-10.8,4.9-10.8,10.8v77.5
			c0,6,4.9,10.8,10.8,10.8h83.5c6,0,10.8-4.9,10.8-10.8v-63.2C600.2,199.9,595.3,195.1,589.3,195z M590.6,269.1
			c0,0.7-0.6,1.3-1.3,1.3h-83.5c-0.7,0-1.3-0.6-1.3-1.3v-77.5c0-0.7,0.6-1.3,1.3-1.3l0,0h29.7c0.3,0,0.7,0.1,0.9,0.4l10.8,10.8
			c2,2,4.8,3.2,7.7,3.2h34.5c0.7,0,1.3,0.6,1.3,1.3l0,0L590.6,269.1z"/>
	</g>
</g>
<g id="code">
	<rect x="320.3" y="0.5" class="st2" width="134.6" height="134.6"/>
	<g>
		<g id="_x32__00000156554135207363655630000003698065657729450888_">
			<path class="st4" d="M375.3,90c-1.1,0-2.2-0.3-3.1-0.9l-29.7-19.8c-1.6-1.1-2.5-2.8-2.5-4.7s0.9-3.7,2.5-4.7l29.7-19.8
				c2.6-1.7,6.1-1,7.8,1.6c1.7,2.6,1,6.1-1.6,7.8l-22.6,15.1l22.6,15.1c2.6,1.7,3.3,5.2,1.6,7.8C378.9,89.2,377.1,90,375.3,90z"/>
		</g>
	</g>
	<path class="st4" d="M394.8,117.7L394.8,117.7c-3.3-1.2-5.1-5-3.8-8.3l31.8-85.6c1.2-3.3,5-5.1,8.3-3.8v0c3.3,1.2,5.1,5,3.8,8.3
		l-31.8,85.6C401.8,117.2,398.1,118.9,394.8,117.7z"/>
</g>
</svg>
