<?xml version="1.0" encoding="utf-8"?>
<!-- Generator: Adobe Illustrator 26.0.3, SVG Export Plug-In . SVG Version: 6.00 Build 0)  -->
<svg version="1.1" id="Layer_1" xmlns="http://www.w3.org/2000/svg" xmlns:xlink="http://www.w3.org/1999/xlink" x="0px" y="0px"
	 viewBox="0 0 4.8 10" style="enable-background:new 0 0 4.8 10;" xml:space="preserve">
<style type="text/css">
	.st0{fill:#BCFD2E;}
</style>
<g>
	<g>
		<path class="st0" d="M4.5,0C3.7,0,2.8,0.2,2.1,0.4C1.7,0.5,1.9,0.9,2.2,0.9c0.6-0.2,1.3-0.2,2-0.2c0,0.4,0,0.8,0,1.1S3.8,2.7,4,3
			c0.2,0.1,0.3,0.1,0.4,0.1C4.8,2.9,4.7,2.3,4.8,2c0-0.5,0.1-1,0-1.6C4.9,0.2,4.6,0.1,4.5,0z"/>
	</g>
</g>
<g>
	<path class="st0" d="M3.2,2.5C3.5,2,3.9,1.6,4.4,1.4L4.3,0.7L3.9,0.5c0,0-0.1,0.1-0.2,0.1c-1.4,1.2-2.4,2.8-3,4.5
		C0.1,6.6-0.1,8.1,0,9.7c-0.1,0.1,0,0.1,0,0.1l0.1,0.1C0.3,10,0.4,10,0.6,10c0.1,0.1,0.2,0.1,0.3,0S1,9.8,1,9.7
		C0.7,7.2,1.6,4.6,3.2,2.5z"/>
</g>
</svg>
